<svg width="512" height="150" viewBox="0 0 512 150" fill="none" xmlns="http://www.w3.org/2000/svg">
  <!-- Sound Wave icon -->
  <rect x="20" y="65" width="8" height="20" rx="4" fill="#D4A574"/>
  <rect x="35" y="55" width="8" height="40" rx="4" fill="#D4A574"/>
  <rect x="50" y="45" width="8" height="60" rx="4" fill="#1F3864"/>
  <rect x="65" y="55" width="8" height="40" rx="4" fill="#1F3864"/>

  <!-- Book Spine / Transition -->
  <rect x="80" y="40" width="6" height="70" rx="3" fill="#1F3864"/>

  <!-- Book Pages -->
  <path d="M86 45C100 40 120 40 135 45V105C120 100 100 100 86 105V45Z" fill="#1F3864" opacity="0.8"/>
  <path d="M86 45C72 40 52 40 37 45V105C52 100 72 100 86 105V45Z" fill="#D4A574" opacity="0.8"/>

  <!-- Typography -->
  <text x="160" y="85" fill="#1F3864" font-family="Georgia, serif" font-size="64" font-weight="bold">Memento</text>
  <text x="160" y="115" fill="#2C2C2C" font-family="Inter, sans-serif" font-size="18" letter-spacing="0.1em">PRESERVE YOUR STORY</text>
</svg>
